<svg style="display: none;"><symbol viewBox="0 0 100 64.7" id="shape-email"><title>email</title> <path d="M5.9,0C0,0,2.9,2,5.9,4.4l41.2,33.8L94.1,4.4C97.1,2,100,0,94.1,0H47.1H5.9z"/> <path d="M0,8.8v50c0,2.9,3,5.9,5.3,5.9h89.3c2.4,0,5.3-2.9,5.3-5.9v-50L47.1,47.1L0,8.8z"/> </symbol><symbol viewBox="0 0 16 16" id="shape-github"><title>github</title> <path fill-rule="evenodd" clip-rule="evenodd" fill="#ffffff" d="M7.999,0.431c-4.285,0-7.76,3.474-7.76,7.761
  c0,3.428,2.223,6.337,5.307,7.363c0.388,0.071,0.53-0.168,0.53-0.374c0-0.184-0.007-0.672-0.01-1.32
  c-2.159,0.469-2.614-1.04-2.614-1.04c-0.353-0.896-0.862-1.135-0.862-1.135c-0.705-0.481,0.053-0.472,0.053-0.472
  c0.779,0.055,1.189,0.8,1.189,0.8c0.692,1.186,1.816,0.843,2.258,0.645c0.071-0.502,0.271-0.843,0.493-1.037
  C4.86,11.425,3.049,10.76,3.049,7.786c0-0.847,0.302-1.54,0.799-2.082C3.768,5.507,3.501,4.718,3.924,3.65
  c0,0,0.652-0.209,2.134,0.796C6.677,4.273,7.34,4.187,8,4.184c0.659,0.003,1.323,0.089,1.943,0.261
  c1.482-1.004,2.132-0.796,2.132-0.796c0.423,1.068,0.157,1.857,0.077,2.054c0.497,0.542,0.798,1.235,0.798,2.082
  c0,2.981-1.814,3.637-3.543,3.829c0.279,0.24,0.527,0.713,0.527,1.437c0,1.037-0.01,1.874-0.01,2.129
  c0,0.208,0.14,0.449,0.534,0.373c3.081-1.028,5.302-3.935,5.302-7.362C15.76,3.906,12.285,0.431,7.999,0.431z"/> </symbol><symbol viewBox="0 0 142 19" id="shape-logo"><title>ThomasMaximini 2</title><desc>Created with Sketch.</desc> <!-- Generator: Sketch 3.2 (9961) - http://www.bohemiancoding.com/sketch -->    <g id="svgstore69fc1032e6adcdbca062e3cac91db953Welcome" stroke="none" stroke-width="1" fill="none" fill-rule="evenodd" sketch:type="MSPage"> <g id="svgstore69fc1032e6adcdbca062e3cac91db953Tablet-Portrait" sketch:type="MSArtboardGroup" transform="translate(-10.000000, -15.000000)" font-weight="bold" font-family="Roboto Condensed" fill="#FFFFFF" font-size="22" font-style="condensed"> <g id="svgstore69fc1032e6adcdbca062e3cac91db953ThomasMaximini-2" sketch:type="MSLayerGroup" transform="translate(10.000000, 10.000000)"> <text id="svgstore69fc1032e6adcdbca062e3cac91db953ThomasMaximini" sketch:type="MSTextLayer"> <tspan x="0" y="23">Thomas</tspan> <tspan x="67.9228516" y="23" font-weight="260">Maximini</tspan> </text> </g> </g> </g> </symbol><symbol viewBox="0 0 273.4 222.2" id="shape-twitter-black"><title>twitter-black</title> <path d="M273.4,26.3c-10.1,4.5-20.9,7.5-32.2,8.8c11.6-6.9,20.5-17.9,24.7-31C255,10.5,243,15.2,230.2,17.7C220,6.8,205.4,0,189.3,0
  c-31,0-56.1,25.1-56.1,56.1c0,4.4,0.5,8.7,1.5,12.8C88,66.5,46.7,44.2,19,10.3c-4.8,8.3-7.6,17.9-7.6,28.2c0,19.5,9.9,36.6,25,46.7
  c-9.2-0.3-17.8-2.8-25.4-7c0,0.2,0,0.5,0,0.7c0,27.2,19.3,49.8,45,55c-4.7,1.3-9.7,2-14.8,2c-3.6,0-7.1-0.4-10.6-1
  c7.1,22.3,27.9,38.5,52.4,39c-19.2,15-43.4,24-69.7,24c-4.5,0-9-0.3-13.4-0.8c24.8,15.9,54.3,25.2,86,25.2
  c103.2,0,159.6-85.5,159.6-159.6c0-2.4-0.1-4.9-0.2-7.3C256.4,47.4,265.9,37.5,273.4,26.3z"/> </symbol><symbol viewBox="0 0 16 16" id="shape-twitter"><title>twitter</title> <path fill="#ffffff" d="M15.969,3.058c-0.586,0.26-1.217,0.436-1.878,0.515c0.675-0.405,1.194-1.045,1.438-1.809
  c-0.632,0.375-1.332,0.647-2.076,0.793c-0.596-0.636-1.446-1.033-2.387-1.033c-1.806,0-3.27,1.464-3.27,3.27
  c0,0.256,0.029,0.506,0.085,0.745C5.163,5.404,2.753,4.102,1.14,2.124C0.859,2.607,0.698,3.168,0.698,3.767
  c0,1.134,0.577,2.135,1.455,2.722C1.616,6.472,1.112,6.325,0.671,6.08c0,0.014,0,0.027,0,0.041c0,1.584,1.127,2.906,2.623,3.206
  C3.02,9.402,2.731,9.442,2.433,9.442c-0.211,0-0.416-0.021-0.615-0.059c0.416,1.299,1.624,2.245,3.055,2.271
  c-1.119,0.877-2.529,1.4-4.061,1.4c-0.264,0-0.524-0.015-0.78-0.046c1.447,0.928,3.166,1.469,5.013,1.469
  c6.015,0,9.304-4.983,9.304-9.304c0-0.142-0.003-0.283-0.009-0.423C14.976,4.29,15.531,3.714,15.969,3.058z"/> </symbol></svg>