<svg style="display: none;"><symbol viewBox="0 0 100 64.7" id="shape-email"><title>email</title> <path d="M5.9,0C0,0,2.9,2,5.9,4.4l41.2,33.8L94.1,4.4C97.1,2,100,0,94.1,0H47.1H5.9z"/> <path d="M0,8.8v50c0,2.9,3,5.9,5.3,5.9h89.3c2.4,0,5.3-2.9,5.3-5.9v-50L47.1,47.1L0,8.8z"/> </symbol><symbol viewBox="0 0 273.4 222.2" id="shape-twitter-black"><title>twitter-black</title> <path d="M273.4,26.3c-10.1,4.5-20.9,7.5-32.2,8.8c11.6-6.9,20.5-17.9,24.7-31C255,10.5,243,15.2,230.2,17.7C220,6.8,205.4,0,189.3,0
  c-31,0-56.1,25.1-56.1,56.1c0,4.4,0.5,8.7,1.5,12.8C88,66.5,46.7,44.2,19,10.3c-4.8,8.3-7.6,17.9-7.6,28.2c0,19.5,9.9,36.6,25,46.7
  c-9.2-0.3-17.8-2.8-25.4-7c0,0.2,0,0.5,0,0.7c0,27.2,19.3,49.8,45,55c-4.7,1.3-9.7,2-14.8,2c-3.6,0-7.1-0.4-10.6-1
  c7.1,22.3,27.9,38.5,52.4,39c-19.2,15-43.4,24-69.7,24c-4.5,0-9-0.3-13.4-0.8c24.8,15.9,54.3,25.2,86,25.2
  c103.2,0,159.6-85.5,159.6-159.6c0-2.4-0.1-4.9-0.2-7.3C256.4,47.4,265.9,37.5,273.4,26.3z"/> </symbol><symbol viewBox="0 0 16 16" id="shape-twitter"><title>twitter</title> <path fill="#C2C2C2" d="M15.969,3.058c-0.586,0.26-1.217,0.436-1.878,0.515c0.675-0.405,1.194-1.045,1.438-1.809
  c-0.632,0.375-1.332,0.647-2.076,0.793c-0.596-0.636-1.446-1.033-2.387-1.033c-1.806,0-3.27,1.464-3.27,3.27
  c0,0.256,0.029,0.506,0.085,0.745C5.163,5.404,2.753,4.102,1.14,2.124C0.859,2.607,0.698,3.168,0.698,3.767
  c0,1.134,0.577,2.135,1.455,2.722C1.616,6.472,1.112,6.325,0.671,6.08c0,0.014,0,0.027,0,0.041c0,1.584,1.127,2.906,2.623,3.206
  C3.02,9.402,2.731,9.442,2.433,9.442c-0.211,0-0.416-0.021-0.615-0.059c0.416,1.299,1.624,2.245,3.055,2.271
  c-1.119,0.877-2.529,1.4-4.061,1.4c-0.264,0-0.524-0.015-0.78-0.046c1.447,0.928,3.166,1.469,5.013,1.469
  c6.015,0,9.304-4.983,9.304-9.304c0-0.142-0.003-0.283-0.009-0.423C14.976,4.29,15.531,3.714,15.969,3.058z"/> </symbol></svg>